<svg width="48" height="48" viewBox="0 0 48 48" fill="none" xmlns="http://www.w3.org/2000/svg">
<mask id="mask0_3056_651" style="mask-type:luminance" maskUnits="userSpaceOnUse" x="0" y="0" width="48" height="48">
<path d="M0 0H48V48H0V0Z" fill="white"/>
</mask>
<g mask="url(#mask0_3056_651)">
<path d="M8.35962 9.26855C9.15246 8.36112 10.0172 7.51911 10.9454 6.75071" stroke="#328ADE" stroke-width="1.5" stroke-miterlimit="10" stroke-linecap="round" stroke-linejoin="round"/>
<path d="M3.41064 18.9504C3.96197 16.5539 4.90644 14.2652 6.20571 12.1773" stroke="#328ADE" stroke-width="1.5" stroke-miterlimit="10" stroke-linecap="round" stroke-linejoin="round"/>
<path d="M10.8063 41.1333C5.93714 37.0359 2.84058 30.8814 2.84058 24C2.84058 23.7386 2.84508 23.4783 2.85389 23.2192" stroke="#328ADE" stroke-width="1.5" stroke-miterlimit="10" stroke-linecap="round" stroke-linejoin="round"/>
<path d="M35.8402 43.5439C32.6494 45.3235 28.9769 46.3369 25.0689 46.3369C21.1743 46.3369 17.5136 45.3304 14.3304 43.562" stroke="#328ADE" stroke-width="1.5" stroke-miterlimit="10" stroke-linecap="round" stroke-linejoin="round"/>
<path d="M43.9174 12.1537C46.0591 15.5875 47.2974 19.6484 47.2974 23.9999C47.2974 30.8712 44.2099 37.0178 39.3529 41.1152" stroke="#328ADE" stroke-width="1.5" stroke-miterlimit="10" stroke-linecap="round" stroke-linejoin="round"/>
<path d="M38.9951 6.58923C39.8177 7.25454 40.5921 7.97725 41.3125 8.75195" stroke="#328ADE" stroke-width="1.5" stroke-miterlimit="10" stroke-linecap="round" stroke-linejoin="round"/>
<path d="M14.4697 4.36133C17.6203 2.64055 21.2313 1.66302 25.0694 1.66302C28.809 1.66302 32.3329 2.59105 35.4256 4.23036" stroke="#328ADE" stroke-width="1.5" stroke-miterlimit="10" stroke-linecap="round" stroke-linejoin="round"/>
<path d="M26.9298 9.47144C29.4334 7.9134 32.1913 6.68884 35.1552 5.87144" stroke="#328ADE" stroke-width="1.5" stroke-miterlimit="10" stroke-linecap="round" stroke-linejoin="round"/>
<path d="M17.8226 18.0847C19.4299 15.8026 21.3321 13.7432 23.4797 11.9601" stroke="#328ADE" stroke-width="1.5" stroke-miterlimit="10" stroke-linecap="round" stroke-linejoin="round"/>
<path d="M12.2633 40.2014C11.4631 33.6596 12.7282 27.2742 15.5858 21.7639" stroke="#328ADE" stroke-width="1.5" stroke-miterlimit="10" stroke-linecap="round" stroke-linejoin="round"/>
<path d="M23.2073 9.47168C20.6191 7.86096 17.759 6.60668 14.6807 5.79012" stroke="#328ADE" stroke-width="1.5" stroke-miterlimit="10" stroke-linecap="round" stroke-linejoin="round"/>
<path d="M35.3701 23.4639C33.3927 19.025 30.4136 15.0761 26.6586 11.9603" stroke="#328ADE" stroke-width="1.5" stroke-miterlimit="10" stroke-linecap="round" stroke-linejoin="round"/>
<path d="M37.7716 31.7161C37.5603 30.2883 37.2516 28.8767 36.8477 27.491" stroke="#328ADE" stroke-width="1.5" stroke-miterlimit="10" stroke-linecap="round" stroke-linejoin="round"/>
<path d="M37.8617 40.3079C38.0479 38.8264 38.13 37.3337 38.1071 35.8408" stroke="#328ADE" stroke-width="1.5" stroke-miterlimit="10" stroke-linecap="round" stroke-linejoin="round"/>
<path d="M14.6128 19.4768C11.4107 19.4605 8.1603 19.8041 4.91187 20.5371" stroke="#328ADE" stroke-width="1.5" stroke-miterlimit="10" stroke-linecap="round" stroke-linejoin="round"/>
<path d="M34.3258 24.3989C29.5586 21.8997 24.321 20.2865 18.8723 19.7116" stroke="#328ADE" stroke-width="1.5" stroke-miterlimit="10" stroke-linecap="round" stroke-linejoin="round"/>
<path d="M45.5027 32.8054C43.2483 30.4519 40.7357 28.3602 38.0123 26.57" stroke="#328ADE" stroke-width="1.5" stroke-miterlimit="10" stroke-linecap="round" stroke-linejoin="round"/>
<path d="M37.2582 23.5872C39.3881 20.1586 41.0273 16.4485 42.1278 12.5652" stroke="#328ADE" stroke-width="1.5" stroke-miterlimit="10" stroke-linecap="round" stroke-linejoin="round"/>
<path d="M14.6124 41.6816C22.6485 38.9102 29.6808 33.8074 34.8279 27.1002" stroke="#328ADE" stroke-width="1.5" stroke-miterlimit="10" stroke-linecap="round" stroke-linejoin="round"/>
<path d="M25.0684 12.6738C23.8897 12.6738 22.9308 11.7103 22.9308 10.5257C22.9308 9.3413 23.8897 8.37773 25.0684 8.37773C26.2471 8.37773 27.206 9.3413 27.206 10.5257C27.206 11.7103 26.2471 12.6738 25.0684 12.6738Z" stroke="#328ADE" stroke-width="1.5" stroke-miterlimit="10" stroke-linecap="round" stroke-linejoin="round"/>
<path d="M16.75 22.1118C15.5713 22.1118 14.6124 21.1482 14.6124 19.9637C14.6124 18.7793 15.5713 17.8156 16.75 17.8156C17.9287 17.8156 18.8876 18.7793 18.8876 19.9637C18.8876 21.1482 17.9287 22.1118 16.75 22.1118Z" stroke="#328ADE" stroke-width="1.5" stroke-miterlimit="10" stroke-linecap="round" stroke-linejoin="round"/>
<path d="M36.1912 27.595C35.0125 27.595 34.0536 26.6313 34.0536 25.4469C34.0536 24.2624 35.0125 23.2988 36.1912 23.2988C37.3699 23.2988 38.3288 24.2624 38.3288 25.4469C38.3288 26.6313 37.3699 27.595 36.1912 27.595Z" stroke="#328ADE" stroke-width="1.5" stroke-miterlimit="10" stroke-linecap="round" stroke-linejoin="round"/>
<path d="M12.5833 44.4734C11.4046 44.4734 10.4457 43.5098 10.4457 42.3253C10.4457 41.1409 11.4046 40.1773 12.5833 40.1773C13.762 40.1773 14.721 41.1409 14.721 42.3253C14.721 43.5098 13.762 44.4734 12.5833 44.4734Z" stroke="#328ADE" stroke-width="1.5" stroke-miterlimit="10" stroke-linecap="round" stroke-linejoin="round"/>
<path d="M37.6773 44.5957C36.4985 44.5957 35.5397 43.632 35.5397 42.4476C35.5397 41.2632 36.4985 40.2995 37.6773 40.2995C38.856 40.2995 39.815 41.2632 39.815 42.4476C39.815 43.632 38.856 44.5957 37.6773 44.5957Z" stroke="#328ADE" stroke-width="1.5" stroke-miterlimit="10" stroke-linecap="round" stroke-linejoin="round"/>
<path d="M42.6612 12.5649C41.4825 12.5649 40.5236 11.6013 40.5236 10.4168C40.5236 9.23241 41.4825 8.26875 42.6612 8.26875C43.84 8.26875 44.7988 9.23241 44.7988 10.4168C44.7988 11.6013 43.84 12.5649 42.6612 12.5649Z" stroke="#328ADE" stroke-width="1.5" stroke-miterlimit="10" stroke-linecap="round" stroke-linejoin="round"/>
<path d="M37.2345 7.52051C36.0558 7.52051 35.0969 6.55695 35.0969 5.37241C35.0969 4.18798 36.0558 3.22441 37.2345 3.22441C38.4132 3.22441 39.3722 4.18798 39.3722 5.37241C39.3722 6.55695 38.4132 7.52051 37.2345 7.52051Z" stroke="#328ADE" stroke-width="1.5" stroke-miterlimit="10" stroke-linecap="round" stroke-linejoin="round"/>
<path d="M12.5833 7.52051C11.4046 7.52051 10.4457 6.55695 10.4457 5.37241C10.4457 4.18798 11.4046 3.22441 12.5833 3.22441C13.762 3.22441 14.721 4.18798 14.721 5.37241C14.721 6.55695 13.762 7.52051 12.5833 7.52051Z" stroke="#328ADE" stroke-width="1.5" stroke-miterlimit="10" stroke-linecap="round" stroke-linejoin="round"/>
<path d="M2.84072 23.2188C1.662 23.2188 0.703125 22.2552 0.703125 21.0707C0.703125 19.8862 1.662 18.9227 2.84072 18.9227C4.01944 18.9227 4.97831 19.8862 4.97831 21.0707C4.97831 22.2552 4.01944 23.2188 2.84072 23.2188Z" stroke="#328ADE" stroke-width="1.5" stroke-miterlimit="10" stroke-linecap="round" stroke-linejoin="round"/>
</g>
</svg>
